G04 #@! TF.FileFunction,Legend,Bot*
%FSLAX46Y46*%
G04 Gerber Fmt 4.6, Leading zero omitted, Abs format (unit mm)*
G04 Created by KiCad (PCBNEW (2015-09-12 BZR 6188)-product) date sam. 10 oct. 2015 11:50:57 CEST*
%MOMM*%
G01*
G04 APERTURE LIST*
%ADD10C,0.800000*%
%ADD11C,0.200000*%
%ADD12C,0.425000*%
%ADD13C,0.250000*%
%ADD14C,0.150000*%
G04 APERTURE END LIST*
D10*
D11*
X37500000Y-63900000D02*
X37500000Y-73800000D01*
X42800000Y-63900000D02*
X37500000Y-63900000D01*
X48000000Y-69100000D02*
X42800000Y-63900000D01*
X50200000Y-69100000D02*
X48000000Y-69100000D01*
X50200000Y-23900000D02*
X50200000Y-69100000D01*
D12*
X67611904Y-41766548D02*
X67611904Y-40066548D01*
X67207142Y-40066548D01*
X66964285Y-40147500D01*
X66802380Y-40309405D01*
X66721428Y-40471310D01*
X66640476Y-40795119D01*
X66640476Y-41037976D01*
X66721428Y-41361786D01*
X66802380Y-41523690D01*
X66964285Y-41685595D01*
X67207142Y-41766548D01*
X67611904Y-41766548D01*
X65183333Y-41766548D02*
X65183333Y-40876071D01*
X65264285Y-40714167D01*
X65426190Y-40633214D01*
X65749999Y-40633214D01*
X65911904Y-40714167D01*
X65183333Y-41685595D02*
X65345237Y-41766548D01*
X65749999Y-41766548D01*
X65911904Y-41685595D01*
X65992856Y-41523690D01*
X65992856Y-41361786D01*
X65911904Y-41199881D01*
X65749999Y-41118929D01*
X65345237Y-41118929D01*
X65183333Y-41037976D01*
X64373809Y-40633214D02*
X64373809Y-41766548D01*
X64373809Y-40795119D02*
X64292857Y-40714167D01*
X64130952Y-40633214D01*
X63888095Y-40633214D01*
X63726190Y-40714167D01*
X63645238Y-40876071D01*
X63645238Y-41766548D01*
X62107143Y-40633214D02*
X62107143Y-42009405D01*
X62188095Y-42171310D01*
X62269047Y-42252262D01*
X62430952Y-42333214D01*
X62673809Y-42333214D01*
X62835714Y-42252262D01*
X62107143Y-41685595D02*
X62269047Y-41766548D01*
X62592857Y-41766548D01*
X62754762Y-41685595D01*
X62835714Y-41604643D01*
X62916666Y-41442738D01*
X62916666Y-40957024D01*
X62835714Y-40795119D01*
X62754762Y-40714167D01*
X62592857Y-40633214D01*
X62269047Y-40633214D01*
X62107143Y-40714167D01*
X60650000Y-41685595D02*
X60811905Y-41766548D01*
X61135714Y-41766548D01*
X61297619Y-41685595D01*
X61378571Y-41523690D01*
X61378571Y-40876071D01*
X61297619Y-40714167D01*
X61135714Y-40633214D01*
X60811905Y-40633214D01*
X60650000Y-40714167D01*
X60569048Y-40876071D01*
X60569048Y-41037976D01*
X61378571Y-41199881D01*
X59840476Y-41766548D02*
X59840476Y-40633214D01*
X59840476Y-40957024D02*
X59759524Y-40795119D01*
X59678571Y-40714167D01*
X59516667Y-40633214D01*
X59354762Y-40633214D01*
X58788095Y-41604643D02*
X58707143Y-41685595D01*
X58788095Y-41766548D01*
X58869047Y-41685595D01*
X58788095Y-41604643D01*
X58788095Y-41766548D01*
X58788095Y-41118929D02*
X58869047Y-40147500D01*
X58788095Y-40066548D01*
X58707143Y-40147500D01*
X58788095Y-41118929D01*
X58788095Y-40066548D01*
X66033333Y-43033452D02*
X65952381Y-42952500D01*
X65790476Y-42871548D01*
X65385714Y-42871548D01*
X65223810Y-42952500D01*
X65142857Y-43033452D01*
X65061905Y-43195357D01*
X65061905Y-43357262D01*
X65142857Y-43600119D01*
X66114286Y-44571548D01*
X65061905Y-44571548D01*
X64495238Y-42871548D02*
X63442857Y-42871548D01*
X64009524Y-43519167D01*
X63766666Y-43519167D01*
X63604762Y-43600119D01*
X63523809Y-43681071D01*
X63442857Y-43842976D01*
X63442857Y-44247738D01*
X63523809Y-44409643D01*
X63604762Y-44490595D01*
X63766666Y-44571548D01*
X64252381Y-44571548D01*
X64414285Y-44490595D01*
X64495238Y-44409643D01*
X62390476Y-42871548D02*
X62228571Y-42871548D01*
X62066666Y-42952500D01*
X61985714Y-43033452D01*
X61904761Y-43195357D01*
X61823809Y-43519167D01*
X61823809Y-43923929D01*
X61904761Y-44247738D01*
X61985714Y-44409643D01*
X62066666Y-44490595D01*
X62228571Y-44571548D01*
X62390476Y-44571548D01*
X62552380Y-44490595D01*
X62633333Y-44409643D01*
X62714285Y-44247738D01*
X62795237Y-43923929D01*
X62795237Y-43519167D01*
X62714285Y-43195357D01*
X62633333Y-43033452D01*
X62552380Y-42952500D01*
X62390476Y-42871548D01*
X61338094Y-42871548D02*
X60771428Y-44571548D01*
X60204761Y-42871548D01*
D13*
X53952381Y-25333333D02*
X52952381Y-25333333D01*
X53952381Y-25761905D02*
X53428571Y-25761905D01*
X53333333Y-25714286D01*
X53285714Y-25619048D01*
X53285714Y-25476190D01*
X53333333Y-25380952D01*
X53380952Y-25333333D01*
X53285714Y-26095238D02*
X53285714Y-26476190D01*
X52952381Y-26238095D02*
X53809524Y-26238095D01*
X53904762Y-26285714D01*
X53952381Y-26380952D01*
X53952381Y-26476190D01*
X53285714Y-26666667D02*
X53285714Y-27047619D01*
X52952381Y-26809524D02*
X53809524Y-26809524D01*
X53904762Y-26857143D01*
X53952381Y-26952381D01*
X53952381Y-27047619D01*
X53285714Y-27380953D02*
X54285714Y-27380953D01*
X53333333Y-27380953D02*
X53285714Y-27476191D01*
X53285714Y-27666668D01*
X53333333Y-27761906D01*
X53380952Y-27809525D01*
X53476190Y-27857144D01*
X53761905Y-27857144D01*
X53857143Y-27809525D01*
X53904762Y-27761906D01*
X53952381Y-27666668D01*
X53952381Y-27476191D01*
X53904762Y-27380953D01*
X53857143Y-28285715D02*
X53904762Y-28333334D01*
X53952381Y-28285715D01*
X53904762Y-28238096D01*
X53857143Y-28285715D01*
X53952381Y-28285715D01*
X53333333Y-28285715D02*
X53380952Y-28333334D01*
X53428571Y-28285715D01*
X53380952Y-28238096D01*
X53333333Y-28285715D01*
X53428571Y-28285715D01*
X52904762Y-29476191D02*
X54190476Y-28619048D01*
X52904762Y-30523810D02*
X54190476Y-29666667D01*
X53285714Y-31285715D02*
X53952381Y-31285715D01*
X53285714Y-30857143D02*
X53809524Y-30857143D01*
X53904762Y-30904762D01*
X53952381Y-31000000D01*
X53952381Y-31142858D01*
X53904762Y-31238096D01*
X53857143Y-31285715D01*
X53857143Y-31761905D02*
X53904762Y-31809524D01*
X53952381Y-31761905D01*
X53904762Y-31714286D01*
X53857143Y-31761905D01*
X53952381Y-31761905D01*
X53952381Y-32666667D02*
X52952381Y-32666667D01*
X53904762Y-32666667D02*
X53952381Y-32571429D01*
X53952381Y-32380952D01*
X53904762Y-32285714D01*
X53857143Y-32238095D01*
X53761905Y-32190476D01*
X53476190Y-32190476D01*
X53380952Y-32238095D01*
X53333333Y-32285714D01*
X53285714Y-32380952D01*
X53285714Y-32571429D01*
X53333333Y-32666667D01*
X53952381Y-33142857D02*
X53285714Y-33142857D01*
X52952381Y-33142857D02*
X53000000Y-33095238D01*
X53047619Y-33142857D01*
X53000000Y-33190476D01*
X52952381Y-33142857D01*
X53047619Y-33142857D01*
X53285714Y-33619047D02*
X53952381Y-33619047D01*
X53380952Y-33619047D02*
X53333333Y-33666666D01*
X53285714Y-33761904D01*
X53285714Y-33904762D01*
X53333333Y-34000000D01*
X53428571Y-34047619D01*
X53952381Y-34047619D01*
X53952381Y-34952381D02*
X53428571Y-34952381D01*
X53333333Y-34904762D01*
X53285714Y-34809524D01*
X53285714Y-34619047D01*
X53333333Y-34523809D01*
X53904762Y-34952381D02*
X53952381Y-34857143D01*
X53952381Y-34619047D01*
X53904762Y-34523809D01*
X53809524Y-34476190D01*
X53714286Y-34476190D01*
X53619048Y-34523809D01*
X53571429Y-34619047D01*
X53571429Y-34857143D01*
X53523810Y-34952381D01*
X53904762Y-35380952D02*
X53952381Y-35476190D01*
X53952381Y-35666666D01*
X53904762Y-35761905D01*
X53809524Y-35809524D01*
X53761905Y-35809524D01*
X53666667Y-35761905D01*
X53619048Y-35666666D01*
X53619048Y-35523809D01*
X53571429Y-35428571D01*
X53476190Y-35380952D01*
X53428571Y-35380952D01*
X53333333Y-35428571D01*
X53285714Y-35523809D01*
X53285714Y-35666666D01*
X53333333Y-35761905D01*
X53952381Y-36238095D02*
X52952381Y-36238095D01*
X53571429Y-36333333D02*
X53952381Y-36619048D01*
X53285714Y-36619048D02*
X53666667Y-36238095D01*
X53857143Y-37047619D02*
X53904762Y-37095238D01*
X53952381Y-37047619D01*
X53904762Y-37000000D01*
X53857143Y-37047619D01*
X53952381Y-37047619D01*
X53904762Y-37904762D02*
X53952381Y-37809524D01*
X53952381Y-37619047D01*
X53904762Y-37523809D01*
X53809524Y-37476190D01*
X53428571Y-37476190D01*
X53333333Y-37523809D01*
X53285714Y-37619047D01*
X53285714Y-37809524D01*
X53333333Y-37904762D01*
X53428571Y-37952381D01*
X53523810Y-37952381D01*
X53619048Y-37476190D01*
X53285714Y-38809524D02*
X53952381Y-38809524D01*
X53285714Y-38380952D02*
X53809524Y-38380952D01*
X53904762Y-38428571D01*
X53952381Y-38523809D01*
X53952381Y-38666667D01*
X53904762Y-38761905D01*
X53857143Y-38809524D01*
X52904762Y-40000000D02*
X54190476Y-39142857D01*
X53285714Y-40190476D02*
X53285714Y-40571428D01*
X53952381Y-40333333D02*
X53095238Y-40333333D01*
X53000000Y-40380952D01*
X52952381Y-40476190D01*
X52952381Y-40571428D01*
X53952381Y-40904762D02*
X53285714Y-40904762D01*
X52952381Y-40904762D02*
X53000000Y-40857143D01*
X53047619Y-40904762D01*
X53000000Y-40952381D01*
X52952381Y-40904762D01*
X53047619Y-40904762D01*
X53952381Y-41523809D02*
X53904762Y-41428571D01*
X53809524Y-41380952D01*
X52952381Y-41380952D01*
X53285714Y-41904762D02*
X54285714Y-41904762D01*
X53333333Y-41904762D02*
X53285714Y-42000000D01*
X53285714Y-42190477D01*
X53333333Y-42285715D01*
X53380952Y-42333334D01*
X53476190Y-42380953D01*
X53761905Y-42380953D01*
X53857143Y-42333334D01*
X53904762Y-42285715D01*
X53952381Y-42190477D01*
X53952381Y-42000000D01*
X53904762Y-41904762D01*
X53952381Y-42809524D02*
X53285714Y-42809524D01*
X52952381Y-42809524D02*
X53000000Y-42761905D01*
X53047619Y-42809524D01*
X53000000Y-42857143D01*
X52952381Y-42809524D01*
X53047619Y-42809524D01*
X53952381Y-43428571D02*
X53904762Y-43333333D01*
X53809524Y-43285714D01*
X52952381Y-43285714D01*
X53952381Y-43952381D02*
X53904762Y-43857143D01*
X53857143Y-43809524D01*
X53761905Y-43761905D01*
X53476190Y-43761905D01*
X53380952Y-43809524D01*
X53333333Y-43857143D01*
X53285714Y-43952381D01*
X53285714Y-44095239D01*
X53333333Y-44190477D01*
X53380952Y-44238096D01*
X53476190Y-44285715D01*
X53761905Y-44285715D01*
X53857143Y-44238096D01*
X53904762Y-44190477D01*
X53952381Y-44095239D01*
X53952381Y-43952381D01*
X53285714Y-44571429D02*
X53285714Y-44952381D01*
X52952381Y-44714286D02*
X53809524Y-44714286D01*
X53904762Y-44761905D01*
X53952381Y-44857143D01*
X53952381Y-44952381D01*
X53904762Y-45666668D02*
X53952381Y-45571430D01*
X53952381Y-45380953D01*
X53904762Y-45285715D01*
X53809524Y-45238096D01*
X53428571Y-45238096D01*
X53333333Y-45285715D01*
X53285714Y-45380953D01*
X53285714Y-45571430D01*
X53333333Y-45666668D01*
X53428571Y-45714287D01*
X53523810Y-45714287D01*
X53619048Y-45238096D01*
X51952381Y-25371427D02*
X50952381Y-25371427D01*
X51285714Y-25847617D02*
X51952381Y-25847617D01*
X51380952Y-25847617D02*
X51333333Y-25895236D01*
X51285714Y-25990474D01*
X51285714Y-26133332D01*
X51333333Y-26228570D01*
X51428571Y-26276189D01*
X51952381Y-26276189D01*
X51285714Y-26609522D02*
X51285714Y-26990474D01*
X50952381Y-26752379D02*
X51809524Y-26752379D01*
X51904762Y-26799998D01*
X51952381Y-26895236D01*
X51952381Y-26990474D01*
X51904762Y-27704761D02*
X51952381Y-27609523D01*
X51952381Y-27419046D01*
X51904762Y-27323808D01*
X51809524Y-27276189D01*
X51428571Y-27276189D01*
X51333333Y-27323808D01*
X51285714Y-27419046D01*
X51285714Y-27609523D01*
X51333333Y-27704761D01*
X51428571Y-27752380D01*
X51523810Y-27752380D01*
X51619048Y-27276189D01*
X51952381Y-28180951D02*
X51285714Y-28180951D01*
X51476190Y-28180951D02*
X51380952Y-28228570D01*
X51333333Y-28276189D01*
X51285714Y-28371427D01*
X51285714Y-28466666D01*
X51285714Y-28657142D02*
X51285714Y-29038094D01*
X51952381Y-28799999D02*
X51095238Y-28799999D01*
X51000000Y-28847618D01*
X50952381Y-28942856D01*
X50952381Y-29038094D01*
X51952381Y-29800000D02*
X51428571Y-29800000D01*
X51333333Y-29752381D01*
X51285714Y-29657143D01*
X51285714Y-29466666D01*
X51333333Y-29371428D01*
X51904762Y-29800000D02*
X51952381Y-29704762D01*
X51952381Y-29466666D01*
X51904762Y-29371428D01*
X51809524Y-29323809D01*
X51714286Y-29323809D01*
X51619048Y-29371428D01*
X51571429Y-29466666D01*
X51571429Y-29704762D01*
X51523810Y-29800000D01*
X51904762Y-30704762D02*
X51952381Y-30609524D01*
X51952381Y-30419047D01*
X51904762Y-30323809D01*
X51857143Y-30276190D01*
X51761905Y-30228571D01*
X51476190Y-30228571D01*
X51380952Y-30276190D01*
X51333333Y-30323809D01*
X51285714Y-30419047D01*
X51285714Y-30609524D01*
X51333333Y-30704762D01*
X51904762Y-31514286D02*
X51952381Y-31419048D01*
X51952381Y-31228571D01*
X51904762Y-31133333D01*
X51809524Y-31085714D01*
X51428571Y-31085714D01*
X51333333Y-31133333D01*
X51285714Y-31228571D01*
X51285714Y-31419048D01*
X51333333Y-31514286D01*
X51428571Y-31561905D01*
X51523810Y-31561905D01*
X51619048Y-31085714D01*
X51285714Y-32752381D02*
X52285714Y-32752381D01*
X51333333Y-32752381D02*
X51285714Y-32847619D01*
X51285714Y-33038096D01*
X51333333Y-33133334D01*
X51380952Y-33180953D01*
X51476190Y-33228572D01*
X51761905Y-33228572D01*
X51857143Y-33180953D01*
X51904762Y-33133334D01*
X51952381Y-33038096D01*
X51952381Y-32847619D01*
X51904762Y-32752381D01*
X51952381Y-33800000D02*
X51904762Y-33704762D01*
X51857143Y-33657143D01*
X51761905Y-33609524D01*
X51476190Y-33609524D01*
X51380952Y-33657143D01*
X51333333Y-33704762D01*
X51285714Y-33800000D01*
X51285714Y-33942858D01*
X51333333Y-34038096D01*
X51380952Y-34085715D01*
X51476190Y-34133334D01*
X51761905Y-34133334D01*
X51857143Y-34085715D01*
X51904762Y-34038096D01*
X51952381Y-33942858D01*
X51952381Y-33800000D01*
X51285714Y-34990477D02*
X51952381Y-34990477D01*
X51285714Y-34561905D02*
X51809524Y-34561905D01*
X51904762Y-34609524D01*
X51952381Y-34704762D01*
X51952381Y-34847620D01*
X51904762Y-34942858D01*
X51857143Y-34990477D01*
X51952381Y-35466667D02*
X51285714Y-35466667D01*
X51476190Y-35466667D02*
X51380952Y-35514286D01*
X51333333Y-35561905D01*
X51285714Y-35657143D01*
X51285714Y-35752382D01*
X51428571Y-37180954D02*
X51428571Y-36847620D01*
X51952381Y-36847620D02*
X50952381Y-36847620D01*
X50952381Y-37323811D01*
X51952381Y-37704763D02*
X51285714Y-37704763D01*
X50952381Y-37704763D02*
X51000000Y-37657144D01*
X51047619Y-37704763D01*
X51000000Y-37752382D01*
X50952381Y-37704763D01*
X51047619Y-37704763D01*
X51952381Y-38323810D02*
X51904762Y-38228572D01*
X51809524Y-38180953D01*
X50952381Y-38180953D01*
X51952381Y-39466668D02*
X50952381Y-39466668D01*
X50952381Y-39847621D01*
X51000000Y-39942859D01*
X51047619Y-39990478D01*
X51142857Y-40038097D01*
X51285714Y-40038097D01*
X51380952Y-39990478D01*
X51428571Y-39942859D01*
X51476190Y-39847621D01*
X51476190Y-39466668D01*
X51952381Y-40466668D02*
X51285714Y-40466668D01*
X50952381Y-40466668D02*
X51000000Y-40419049D01*
X51047619Y-40466668D01*
X51000000Y-40514287D01*
X50952381Y-40466668D01*
X51047619Y-40466668D01*
X51952381Y-41085715D02*
X51904762Y-40990477D01*
X51809524Y-40942858D01*
X50952381Y-40942858D01*
X51952381Y-41609525D02*
X51904762Y-41514287D01*
X51857143Y-41466668D01*
X51761905Y-41419049D01*
X51476190Y-41419049D01*
X51380952Y-41466668D01*
X51333333Y-41514287D01*
X51285714Y-41609525D01*
X51285714Y-41752383D01*
X51333333Y-41847621D01*
X51380952Y-41895240D01*
X51476190Y-41942859D01*
X51761905Y-41942859D01*
X51857143Y-41895240D01*
X51904762Y-41847621D01*
X51952381Y-41752383D01*
X51952381Y-41609525D01*
X51285714Y-42228573D02*
X51285714Y-42609525D01*
X50952381Y-42371430D02*
X51809524Y-42371430D01*
X51904762Y-42419049D01*
X51952381Y-42514287D01*
X51952381Y-42609525D01*
X51904762Y-43323812D02*
X51952381Y-43228574D01*
X51952381Y-43038097D01*
X51904762Y-42942859D01*
X51809524Y-42895240D01*
X51428571Y-42895240D01*
X51333333Y-42942859D01*
X51285714Y-43038097D01*
X51285714Y-43228574D01*
X51333333Y-43323812D01*
X51428571Y-43371431D01*
X51523810Y-43371431D01*
X51619048Y-42895240D01*
X51571429Y-44561907D02*
X51571429Y-45323812D01*
X51285714Y-46466669D02*
X51952381Y-46704764D01*
X51285714Y-46942860D01*
X51047619Y-47276193D02*
X51000000Y-47323812D01*
X50952381Y-47419050D01*
X50952381Y-47657146D01*
X51000000Y-47752384D01*
X51047619Y-47800003D01*
X51142857Y-47847622D01*
X51238095Y-47847622D01*
X51380952Y-47800003D01*
X51952381Y-47228574D01*
X51952381Y-47847622D01*
X51857143Y-48276193D02*
X51904762Y-48323812D01*
X51952381Y-48276193D01*
X51904762Y-48228574D01*
X51857143Y-48276193D01*
X51952381Y-48276193D01*
X50952381Y-48942859D02*
X50952381Y-49038098D01*
X51000000Y-49133336D01*
X51047619Y-49180955D01*
X51142857Y-49228574D01*
X51333333Y-49276193D01*
X51571429Y-49276193D01*
X51761905Y-49228574D01*
X51857143Y-49180955D01*
X51904762Y-49133336D01*
X51952381Y-49038098D01*
X51952381Y-48942859D01*
X51904762Y-48847621D01*
X51857143Y-48800002D01*
X51761905Y-48752383D01*
X51571429Y-48704764D01*
X51333333Y-48704764D01*
X51142857Y-48752383D01*
X51047619Y-48800002D01*
X51000000Y-48847621D01*
X50952381Y-48942859D01*
D14*
X27400000Y-23900000D02*
X77400000Y-23900000D01*
X27400000Y-73900000D02*
X27400000Y-23900000D01*
X77400000Y-73900000D02*
X27400000Y-73900000D01*
X77400000Y-23900000D02*
X77400000Y-73900000D01*
X36731220Y-30489860D02*
X36370540Y-31960520D01*
X36370540Y-31960520D02*
X36091140Y-30898800D01*
X36091140Y-30898800D02*
X35781260Y-31970680D01*
X35781260Y-31970680D02*
X35440900Y-30520340D01*
X38151080Y-31180740D02*
X37361140Y-31170580D01*
X37361140Y-31170580D02*
X37350980Y-31180740D01*
X37350980Y-31180740D02*
X37350980Y-31170580D01*
X37310340Y-30459380D02*
X37310340Y-32001160D01*
X38199340Y-30449220D02*
X38199340Y-32018940D01*
X38199340Y-32018940D02*
X38189180Y-32008780D01*
X38750520Y-30550820D02*
X39101040Y-30469540D01*
X39101040Y-30469540D02*
X39421080Y-30459380D01*
X39421080Y-30459380D02*
X39659840Y-30660040D01*
X39659840Y-30660040D02*
X39690320Y-30929280D01*
X39690320Y-30929280D02*
X39449020Y-31170580D01*
X39449020Y-31170580D02*
X39060400Y-31300120D01*
X39060400Y-31300120D02*
X38880060Y-31460140D01*
X38880060Y-31460140D02*
X38839420Y-31759860D01*
X38839420Y-31759860D02*
X39070560Y-31980840D01*
X39070560Y-31980840D02*
X39390600Y-32008780D01*
X39390600Y-32008780D02*
X39741120Y-31899560D01*
X40779980Y-30449220D02*
X41028900Y-30469540D01*
X41028900Y-30469540D02*
X41270200Y-30710840D01*
X41270200Y-30710840D02*
X41359100Y-31201060D01*
X41359100Y-31201060D02*
X41331160Y-31549040D01*
X41331160Y-31549040D02*
X41130500Y-31869080D01*
X41130500Y-31869080D02*
X40879040Y-31991000D01*
X40879040Y-31991000D02*
X40569160Y-31919880D01*
X40569160Y-31919880D02*
X40350720Y-31739540D01*
X40350720Y-31739540D02*
X40279600Y-31279800D01*
X40279600Y-31279800D02*
X40330400Y-30870860D01*
X40330400Y-30870860D02*
X40439620Y-30588920D01*
X40439620Y-30588920D02*
X40800300Y-30459380D01*
X40180540Y-28729640D02*
X40439620Y-29290980D01*
X40439620Y-29290980D02*
X39901140Y-29809140D01*
X39901140Y-29809140D02*
X39380440Y-29539900D01*
X39380440Y-29539900D02*
X39101040Y-29699920D01*
X37660860Y-29679600D02*
X37330660Y-29489100D01*
X37330660Y-29489100D02*
X36891240Y-29819300D01*
X36891240Y-29819300D02*
X36418800Y-29329080D01*
X36418800Y-29329080D02*
X36700740Y-28849020D01*
X36700740Y-28849020D02*
X36510240Y-28379120D01*
X36510240Y-28379120D02*
X35900640Y-28191160D01*
X35900640Y-28191160D02*
X35900640Y-27510440D01*
X35900640Y-27510440D02*
X36459440Y-27370740D01*
X36459440Y-27370740D02*
X36660100Y-26799240D01*
X36660100Y-26799240D02*
X36390860Y-26329340D01*
X36390860Y-26329340D02*
X36860760Y-25818800D01*
X36860760Y-25818800D02*
X37378920Y-26080420D01*
X37378920Y-26080420D02*
X37848820Y-25879760D01*
X37848820Y-25879760D02*
X38019000Y-25338740D01*
X38019000Y-25338740D02*
X38709880Y-25320960D01*
X38709880Y-25320960D02*
X38920700Y-25869600D01*
X38920700Y-25869600D02*
X39339800Y-26039780D01*
X39339800Y-26039780D02*
X39890980Y-25770540D01*
X39890980Y-25770540D02*
X40409140Y-26298860D01*
X40409140Y-26298860D02*
X40160220Y-26839880D01*
X40160220Y-26839880D02*
X40330400Y-27319940D01*
X40330400Y-27319940D02*
X40879040Y-27419000D01*
X40879040Y-27419000D02*
X40889200Y-28120040D01*
X40889200Y-28120040D02*
X40330400Y-28320700D01*
X40330400Y-28320700D02*
X40190700Y-28719480D01*
X38049480Y-28699160D02*
X37749760Y-28549300D01*
X37749760Y-28549300D02*
X37549100Y-28351180D01*
X37549100Y-28351180D02*
X37399240Y-27949860D01*
X37399240Y-27949860D02*
X37399240Y-27551080D01*
X37399240Y-27551080D02*
X37549100Y-27200560D01*
X37549100Y-27200560D02*
X38001220Y-26850040D01*
X38001220Y-26850040D02*
X38450800Y-26799240D01*
X38450800Y-26799240D02*
X38849580Y-26900840D01*
X38849580Y-26900840D02*
X39250900Y-27248820D01*
X39250900Y-27248820D02*
X39400760Y-27700940D01*
X39400760Y-27700940D02*
X39349960Y-28198780D01*
X39349960Y-28198780D02*
X39101040Y-28501040D01*
X39101040Y-28501040D02*
X38750520Y-28699160D01*
X38750520Y-28699160D02*
X39101040Y-29699920D01*
X38049480Y-28699160D02*
X37650700Y-29699920D01*
M02*
