M48
METRIC,TZ
T1C0.635
T2C0.813
T3C1.001
T4C1.016
T5C1.524
T6C3.000
%
G90
G05
T1
X37900Y-40500
X42700Y-41500
T2
X35790Y-66660
X35790Y-69200
X35790Y-71740
X43410Y-66660
X43410Y-69200
X43410Y-71740
X48490Y-25960
X48490Y-28500
X48490Y-31040
X48490Y-35060
X48490Y-37600
X48490Y-40140
X48490Y-44160
X48490Y-46700
X48490Y-49240
X48490Y-53160
X48490Y-55700
X48490Y-58240
X48490Y-62260
X48490Y-64800
X48490Y-67340
X56110Y-25960
X56110Y-28500
X56110Y-31040
X56110Y-35060
X56110Y-37600
X56110Y-40140
X56110Y-44160
X56110Y-46700
X56110Y-49240
X56110Y-53160
X56110Y-55700
X56110Y-58240
X56110Y-62260
X56110Y-64800
X56110Y-67340
T3
X28760Y-46200
X28760Y-50700
X28760Y-55200
X28760Y-59700
X28760Y-64200
X28760Y-68700
X31300Y-46200
X31300Y-50700
X31300Y-55200
X31300Y-59700
X31300Y-64200
X31300Y-68700
X33420Y-25900
X33420Y-28600
X33420Y-31300
X33420Y-34000
X33420Y-36700
X33420Y-39400
X34420Y-48500
X34420Y-51200
X34420Y-53900
X34420Y-56600
X34420Y-59300
X34420Y-62000
X43580Y-25900
X43580Y-28600
X43580Y-31300
X43580Y-34000
X43580Y-36700
X43580Y-39400
X44580Y-48500
X44580Y-51200
X44580Y-53900
X44580Y-56600
X44580Y-59300
X44580Y-62000
T4
X30000Y-26360
X30000Y-28900
X30000Y-31440
X30000Y-33980
X30000Y-36520
X30000Y-39060
X30000Y-41600
X60960Y-27940
X60960Y-38100
X60960Y-46990
X60960Y-57150
X60960Y-60960
X60960Y-71120
X64770Y-27940
X64770Y-38100
X64770Y-46990
X64770Y-57150
X64770Y-60960
X64770Y-71120
T5
X72700Y-33220
X72700Y-38300
X72700Y-43380
X72700Y-52320
X72700Y-57400
X72700Y-62480
T6
X35500Y-43900
X73900Y-27300
X73900Y-70300
T0
M30
