G04 #@! TF.FileFunction,Copper,L2,Bot,Signal*
%FSLAX46Y46*%
G04 Gerber Fmt 4.6, Leading zero omitted, Abs format (unit mm)*
G04 Created by KiCad (PCBNEW (2015-09-12 BZR 6188)-product) date sam. 10 oct. 2015 11:50:57 CEST*
%MOMM*%
G01*
G04 APERTURE LIST*
%ADD10C,0.800000*%
%ADD11C,0.150000*%
%ADD12C,0.381000*%
%ADD13R,2.286000X1.574800*%
%ADD14O,2.286000X1.574800*%
%ADD15R,2.000000X2.000000*%
%ADD16C,2.000000*%
%ADD17R,2.540000X2.540000*%
%ADD18C,2.540000*%
%ADD19R,2.032000X1.727200*%
%ADD20O,2.032000X1.727200*%
%ADD21C,1.998980*%
%ADD22C,1.778000*%
%ADD23R,1.778000X1.778000*%
%ADD24C,0.889000*%
%ADD25C,0.254000*%
G04 APERTURE END LIST*
D10*
D11*
X27400000Y-23900000D02*
X77400000Y-23900000D01*
X27400000Y-73900000D02*
X27400000Y-23900000D01*
X77400000Y-73900000D02*
X27400000Y-73900000D01*
X77400000Y-23900000D02*
X77400000Y-73900000D01*
D12*
X70697000Y-41494000D02*
X69300000Y-39589000D01*
X69300000Y-39589000D02*
X70570000Y-39589000D01*
X69046000Y-37684000D02*
X68919000Y-36668000D01*
X68919000Y-36668000D02*
X69681000Y-37303000D01*
X69681000Y-37303000D02*
X69173000Y-37049000D01*
X69173000Y-37049000D02*
X70951000Y-39843000D01*
X70951000Y-39843000D02*
X69681000Y-39843000D01*
X69681000Y-39843000D02*
X71459000Y-41875000D01*
X71459000Y-41875000D02*
X70697000Y-41367000D01*
X70697000Y-41367000D02*
X70570000Y-41875000D01*
X70443000Y-41748000D02*
X68919000Y-39462000D01*
X68919000Y-39462000D02*
X70316000Y-39462000D01*
X70316000Y-39462000D02*
X69173000Y-37176000D01*
X69173000Y-37176000D02*
X69046000Y-37684000D01*
D13*
X48490000Y-25960000D03*
D14*
X48490000Y-28500000D03*
X48490000Y-31040000D03*
X56110000Y-31040000D03*
X56110000Y-28500000D03*
X56110000Y-25960000D03*
D13*
X48490000Y-35060000D03*
D14*
X48490000Y-37600000D03*
X48490000Y-40140000D03*
X56110000Y-40140000D03*
X56110000Y-37600000D03*
X56110000Y-35060000D03*
D13*
X48490000Y-44160000D03*
D14*
X48490000Y-46700000D03*
X48490000Y-49240000D03*
X56110000Y-49240000D03*
X56110000Y-46700000D03*
X56110000Y-44160000D03*
D13*
X48490000Y-53160000D03*
D14*
X48490000Y-55700000D03*
X48490000Y-58240000D03*
X56110000Y-58240000D03*
X56110000Y-55700000D03*
X56110000Y-53160000D03*
D13*
X48490000Y-62260000D03*
D14*
X48490000Y-64800000D03*
X48490000Y-67340000D03*
X56110000Y-67340000D03*
X56110000Y-64800000D03*
X56110000Y-62260000D03*
D13*
X35790000Y-66660000D03*
D14*
X35790000Y-69200000D03*
X35790000Y-71740000D03*
X43410000Y-71740000D03*
X43410000Y-69200000D03*
X43410000Y-66660000D03*
D15*
X28760000Y-46200000D03*
D16*
X31300000Y-46200000D03*
D15*
X28760000Y-55200000D03*
D16*
X31300000Y-55200000D03*
D15*
X28760000Y-64200000D03*
D16*
X31300000Y-64200000D03*
D15*
X28760000Y-50700000D03*
D16*
X31300000Y-50700000D03*
D15*
X28760000Y-59700000D03*
D16*
X31300000Y-59700000D03*
D15*
X28760000Y-68700000D03*
D16*
X31300000Y-68700000D03*
D17*
X72700000Y-52320000D03*
D18*
X72700000Y-57400000D03*
X72700000Y-62480000D03*
D19*
X30000000Y-41600000D03*
D20*
X30000000Y-39060000D03*
X30000000Y-36520000D03*
X30000000Y-33980000D03*
X30000000Y-31440000D03*
X30000000Y-28900000D03*
X30000000Y-26360000D03*
D21*
X43580000Y-25900000D03*
X33420000Y-25900000D03*
X43580000Y-28600000D03*
X33420000Y-28600000D03*
X43580000Y-31300000D03*
X33420000Y-31300000D03*
X43580000Y-34000000D03*
X33420000Y-34000000D03*
X43580000Y-36700000D03*
X33420000Y-36700000D03*
X43580000Y-39400000D03*
X33420000Y-39400000D03*
X44580000Y-51200000D03*
X34420000Y-51200000D03*
X44580000Y-56600000D03*
X34420000Y-56600000D03*
X44580000Y-62000000D03*
X34420000Y-62000000D03*
X44580000Y-48500000D03*
X34420000Y-48500000D03*
X44580000Y-53900000D03*
X34420000Y-53900000D03*
X44580000Y-59300000D03*
X34420000Y-59300000D03*
D17*
X72700000Y-33220000D03*
D18*
X72700000Y-38300000D03*
X72700000Y-43380000D03*
D22*
X60960000Y-27940000D03*
D23*
X60960000Y-38100000D03*
D22*
X64770000Y-38100000D03*
D23*
X64770000Y-27940000D03*
D22*
X60960000Y-46990000D03*
D23*
X60960000Y-57150000D03*
D22*
X64770000Y-57150000D03*
D23*
X64770000Y-46990000D03*
D22*
X60960000Y-60960000D03*
D23*
X60960000Y-71120000D03*
D22*
X64770000Y-71120000D03*
D23*
X64770000Y-60960000D03*
D24*
X42700000Y-41500000D03*
X37900000Y-40500000D03*
D10*
X67310000Y-44450000D02*
X72700000Y-49840000D01*
X72700000Y-49840000D02*
X72700000Y-52320000D01*
X67310000Y-32169000D02*
X67310000Y-44450000D01*
X64770000Y-27940000D02*
X64770000Y-29629000D01*
X64770000Y-29629000D02*
X67310000Y-32169000D01*
X56110000Y-31040000D02*
X58053000Y-31040000D01*
X58053000Y-31040000D02*
X60960000Y-33947000D01*
X60960000Y-33947000D02*
X60960000Y-36411000D01*
X60960000Y-36411000D02*
X60960000Y-38100000D01*
X64770000Y-46990000D02*
X64770000Y-49470000D01*
X64770000Y-49470000D02*
X72700000Y-57400000D01*
X71900000Y-56600000D02*
X72700000Y-57400000D01*
X56110000Y-49240000D02*
X58053000Y-49240000D01*
X58053000Y-49240000D02*
X60960000Y-52147000D01*
X60960000Y-55461000D02*
X60960000Y-57150000D01*
X60960000Y-52147000D02*
X60960000Y-55461000D01*
X56110000Y-49240000D02*
X56465600Y-49240000D01*
X64770000Y-60960000D02*
X71180000Y-60960000D01*
X71180000Y-60960000D02*
X72700000Y-62480000D01*
X71480000Y-62480000D02*
X72700000Y-62480000D01*
D25*
X38900000Y-41500000D02*
X42700000Y-41500000D01*
X37900000Y-40500000D02*
X38900000Y-41500000D01*
X48430000Y-25900000D02*
X48490000Y-25960000D01*
X43580000Y-25900000D02*
X48430000Y-25900000D01*
D10*
X43960000Y-66660000D02*
X43410000Y-66660000D01*
X56110000Y-62260000D02*
X55740000Y-62260000D01*
X47900000Y-70300000D02*
X57700000Y-70300000D01*
X57700000Y-70300000D02*
X59300000Y-68700000D01*
X59300000Y-68700000D02*
X59300000Y-63700000D01*
X59300000Y-63700000D02*
X57860000Y-62260000D01*
X57860000Y-62260000D02*
X56110000Y-62260000D01*
X44260000Y-66660000D02*
X47900000Y-70300000D01*
X43410000Y-66660000D02*
X44260000Y-66660000D01*
D25*
X47900000Y-34470000D02*
X48490000Y-35060000D01*
X45000000Y-28600000D02*
X46200000Y-29800000D01*
X46200000Y-29800000D02*
X46200000Y-31400000D01*
X46200000Y-31400000D02*
X47900000Y-33100000D01*
X47900000Y-33100000D02*
X47900000Y-34470000D01*
X43580000Y-28600000D02*
X45000000Y-28600000D01*
X44800000Y-31300000D02*
X46800000Y-33300000D01*
X46800000Y-33300000D02*
X46800000Y-40700000D01*
X46800000Y-40700000D02*
X48490000Y-42390000D01*
X48490000Y-42390000D02*
X48490000Y-44160000D01*
X43580000Y-31300000D02*
X44800000Y-31300000D01*
X45400000Y-34000000D02*
X46200000Y-34800000D01*
X46200000Y-34800000D02*
X46200000Y-44500000D01*
X46200000Y-44500000D02*
X46900000Y-45200000D01*
X46900000Y-45200000D02*
X46900000Y-50100000D01*
X46900000Y-50100000D02*
X48490000Y-51690000D01*
X48490000Y-51690000D02*
X48490000Y-53160000D01*
X43580000Y-34000000D02*
X45400000Y-34000000D01*
X43580000Y-36700000D02*
X44600000Y-36700000D01*
X46300000Y-60070000D02*
X48490000Y-62260000D01*
X46300000Y-45700000D02*
X46300000Y-60070000D01*
X45500000Y-44900000D02*
X46300000Y-45700000D01*
X45500000Y-37600000D02*
X45500000Y-44900000D01*
X44600000Y-36700000D02*
X45500000Y-37600000D01*
X43580000Y-36700000D02*
X44500000Y-36700000D01*
X43580000Y-45820000D02*
X41500000Y-47900000D01*
X41500000Y-47900000D02*
X41500000Y-60950000D01*
X41500000Y-60950000D02*
X35790000Y-66660000D01*
X43580000Y-39400000D02*
X43580000Y-45820000D01*
X32960000Y-26360000D02*
X33420000Y-25900000D01*
X30000000Y-26360000D02*
X32960000Y-26360000D01*
X33120000Y-28900000D02*
X33420000Y-28600000D01*
X30000000Y-28900000D02*
X33120000Y-28900000D01*
X33280000Y-31440000D02*
X33420000Y-31300000D01*
X30000000Y-31440000D02*
X33280000Y-31440000D01*
X33400000Y-33980000D02*
X33420000Y-34000000D01*
X30000000Y-33980000D02*
X33400000Y-33980000D01*
X33240000Y-36520000D02*
X33420000Y-36700000D01*
X30000000Y-36520000D02*
X33240000Y-36520000D01*
X33080000Y-39060000D02*
X33420000Y-39400000D01*
X30000000Y-39060000D02*
X33080000Y-39060000D01*
G36*
X32035154Y-24972927D02*
X31785794Y-25573453D01*
X31785773Y-25598000D01*
X31443312Y-25598000D01*
X31244415Y-25300330D01*
X30758234Y-24975474D01*
X30184745Y-24861400D01*
X29815255Y-24861400D01*
X29241766Y-24975474D01*
X28755585Y-25300330D01*
X28430729Y-25786511D01*
X28316655Y-26360000D01*
X28430729Y-26933489D01*
X28755585Y-27419670D01*
X29070366Y-27630000D01*
X28755585Y-27840330D01*
X28430729Y-28326511D01*
X28316655Y-28900000D01*
X28430729Y-29473489D01*
X28755585Y-29959670D01*
X29070366Y-30170000D01*
X28755585Y-30380330D01*
X28430729Y-30866511D01*
X28316655Y-31440000D01*
X28430729Y-32013489D01*
X28755585Y-32499670D01*
X29070366Y-32710000D01*
X28755585Y-32920330D01*
X28430729Y-33406511D01*
X28316655Y-33980000D01*
X28430729Y-34553489D01*
X28755585Y-35039670D01*
X29070366Y-35250000D01*
X28755585Y-35460330D01*
X28430729Y-35946511D01*
X28316655Y-36520000D01*
X28430729Y-37093489D01*
X28755585Y-37579670D01*
X29070366Y-37790000D01*
X28755585Y-38000330D01*
X28430729Y-38486511D01*
X28316655Y-39060000D01*
X28430729Y-39633489D01*
X28755585Y-40119670D01*
X28777780Y-40134500D01*
X28624302Y-40198073D01*
X28445673Y-40376701D01*
X28349000Y-40610090D01*
X28349000Y-41314250D01*
X28507750Y-41473000D01*
X29873000Y-41473000D01*
X29873000Y-41453000D01*
X30127000Y-41453000D01*
X30127000Y-41473000D01*
X31492250Y-41473000D01*
X31651000Y-41314250D01*
X31651000Y-40610090D01*
X31554327Y-40376701D01*
X31375698Y-40198073D01*
X31222220Y-40134500D01*
X31244415Y-40119670D01*
X31443312Y-39822000D01*
X31825845Y-39822000D01*
X32033538Y-40324655D01*
X32492927Y-40784846D01*
X33093453Y-41034206D01*
X33743694Y-41034774D01*
X34344655Y-40786462D01*
X34804846Y-40327073D01*
X35054206Y-39726547D01*
X35054774Y-39076306D01*
X34806462Y-38475345D01*
X34381520Y-38049661D01*
X34804846Y-37627073D01*
X35054206Y-37026547D01*
X35054774Y-36376306D01*
X34806462Y-35775345D01*
X34381520Y-35349661D01*
X34804846Y-34927073D01*
X35054206Y-34326547D01*
X35054774Y-33676306D01*
X34806462Y-33075345D01*
X34381520Y-32649661D01*
X34804846Y-32227073D01*
X35054206Y-31626547D01*
X35054774Y-30976306D01*
X34806462Y-30375345D01*
X34381520Y-29949661D01*
X34804846Y-29527073D01*
X35054206Y-28926547D01*
X35054774Y-28276306D01*
X34806462Y-27675345D01*
X34381520Y-27249661D01*
X34804846Y-26827073D01*
X35054206Y-26226547D01*
X35054774Y-25576306D01*
X34806462Y-24975345D01*
X34441754Y-24610000D01*
X42558715Y-24610000D01*
X42195154Y-24972927D01*
X41945794Y-25573453D01*
X41945226Y-26223694D01*
X42193538Y-26824655D01*
X42618480Y-27250339D01*
X42195154Y-27672927D01*
X41945794Y-28273453D01*
X41945226Y-28923694D01*
X42193538Y-29524655D01*
X42618480Y-29950339D01*
X42195154Y-30372927D01*
X41945794Y-30973453D01*
X41945226Y-31623694D01*
X42193538Y-32224655D01*
X42618480Y-32650339D01*
X42195154Y-33072927D01*
X41945794Y-33673453D01*
X41945226Y-34323694D01*
X42193538Y-34924655D01*
X42618480Y-35350339D01*
X42195154Y-35772927D01*
X41945794Y-36373453D01*
X41945226Y-37023694D01*
X42193538Y-37624655D01*
X42618480Y-38050339D01*
X42195154Y-38472927D01*
X41945794Y-39073453D01*
X41945226Y-39723694D01*
X42193538Y-40324655D01*
X42652927Y-40784846D01*
X42818000Y-40853390D01*
X42818000Y-45504369D01*
X40961185Y-47361185D01*
X40796004Y-47608395D01*
X40738000Y-47900000D01*
X40738000Y-60634369D01*
X38499369Y-62873000D01*
X36900000Y-62873000D01*
X36850590Y-62883006D01*
X36808965Y-62911447D01*
X36781685Y-62953841D01*
X36773000Y-63000000D01*
X36773000Y-64599370D01*
X36147210Y-65225160D01*
X34647000Y-65225160D01*
X34411683Y-65269438D01*
X34195559Y-65408510D01*
X34050569Y-65620710D01*
X33999560Y-65872600D01*
X33999560Y-67447400D01*
X34043838Y-67682717D01*
X34182910Y-67898841D01*
X34395110Y-68043831D01*
X34588390Y-68082971D01*
X34338809Y-68284014D01*
X34071673Y-68773004D01*
X34054990Y-68852940D01*
X34177148Y-69073000D01*
X35663000Y-69073000D01*
X35663000Y-69053000D01*
X35917000Y-69053000D01*
X35917000Y-69073000D01*
X35937000Y-69073000D01*
X35937000Y-69327000D01*
X35917000Y-69327000D01*
X35917000Y-69347000D01*
X35663000Y-69347000D01*
X35663000Y-69327000D01*
X34177148Y-69327000D01*
X34054990Y-69547060D01*
X34071673Y-69626996D01*
X34338809Y-70115986D01*
X34772738Y-70465525D01*
X34788830Y-70470246D01*
X34393778Y-70734211D01*
X34085441Y-71195671D01*
X33977167Y-71740000D01*
X34085441Y-72284329D01*
X34393778Y-72745789D01*
X34855238Y-73054126D01*
X35399567Y-73162400D01*
X36180433Y-73162400D01*
X36724762Y-73054126D01*
X36773000Y-73021894D01*
X36773000Y-73190000D01*
X28110000Y-73190000D01*
X28110000Y-70335000D01*
X28474250Y-70335000D01*
X28633000Y-70176250D01*
X28633000Y-68827000D01*
X28613000Y-68827000D01*
X28613000Y-68573000D01*
X28633000Y-68573000D01*
X28633000Y-67223750D01*
X28887000Y-67223750D01*
X28887000Y-68573000D01*
X28907000Y-68573000D01*
X28907000Y-68827000D01*
X28887000Y-68827000D01*
X28887000Y-70176250D01*
X29045750Y-70335000D01*
X29886310Y-70335000D01*
X30119699Y-70238327D01*
X30298327Y-70059698D01*
X30312630Y-70025166D01*
X30372637Y-70085278D01*
X30973352Y-70334716D01*
X31623795Y-70335284D01*
X32224943Y-70086894D01*
X32685278Y-69627363D01*
X32934716Y-69026648D01*
X32935284Y-68376205D01*
X32686894Y-67775057D01*
X32227363Y-67314722D01*
X31626648Y-67065284D01*
X30976205Y-67064716D01*
X30375057Y-67313106D01*
X30312803Y-67375251D01*
X30298327Y-67340302D01*
X30119699Y-67161673D01*
X29886310Y-67065000D01*
X29045750Y-67065000D01*
X28887000Y-67223750D01*
X28633000Y-67223750D01*
X28474250Y-67065000D01*
X28110000Y-67065000D01*
X28110000Y-65835000D01*
X28474250Y-65835000D01*
X28633000Y-65676250D01*
X28633000Y-64327000D01*
X28613000Y-64327000D01*
X28613000Y-64073000D01*
X28633000Y-64073000D01*
X28633000Y-62723750D01*
X28887000Y-62723750D01*
X28887000Y-64073000D01*
X28907000Y-64073000D01*
X28907000Y-64327000D01*
X28887000Y-64327000D01*
X28887000Y-65676250D01*
X29045750Y-65835000D01*
X29886310Y-65835000D01*
X30119699Y-65738327D01*
X30298327Y-65559698D01*
X30312630Y-65525166D01*
X30372637Y-65585278D01*
X30973352Y-65834716D01*
X31623795Y-65835284D01*
X32224943Y-65586894D01*
X32685278Y-65127363D01*
X32934716Y-64526648D01*
X32935284Y-63876205D01*
X32686894Y-63275057D01*
X32227363Y-62814722D01*
X31626648Y-62565284D01*
X30976205Y-62564716D01*
X30375057Y-62813106D01*
X30312803Y-62875251D01*
X30298327Y-62840302D01*
X30119699Y-62661673D01*
X29886310Y-62565000D01*
X29045750Y-62565000D01*
X28887000Y-62723750D01*
X28633000Y-62723750D01*
X28474250Y-62565000D01*
X28110000Y-62565000D01*
X28110000Y-61335000D01*
X28474250Y-61335000D01*
X28633000Y-61176250D01*
X28633000Y-59827000D01*
X28613000Y-59827000D01*
X28613000Y-59573000D01*
X28633000Y-59573000D01*
X28633000Y-58223750D01*
X28474250Y-58065000D01*
X28110000Y-58065000D01*
X28110000Y-56835000D01*
X28474250Y-56835000D01*
X28633000Y-56676250D01*
X28633000Y-55327000D01*
X28613000Y-55327000D01*
X28613000Y-55073000D01*
X28633000Y-55073000D01*
X28633000Y-53723750D01*
X28887000Y-53723750D01*
X28887000Y-55073000D01*
X28907000Y-55073000D01*
X28907000Y-55327000D01*
X28887000Y-55327000D01*
X28887000Y-56676250D01*
X29045750Y-56835000D01*
X29886310Y-56835000D01*
X30119699Y-56738327D01*
X30298327Y-56559698D01*
X30312630Y-56525166D01*
X30372637Y-56585278D01*
X30973352Y-56834716D01*
X31623795Y-56835284D01*
X32224943Y-56586894D01*
X32685278Y-56127363D01*
X32934716Y-55526648D01*
X32935284Y-54876205D01*
X32686894Y-54275057D01*
X32227363Y-53814722D01*
X31626648Y-53565284D01*
X30976205Y-53564716D01*
X30375057Y-53813106D01*
X30312803Y-53875251D01*
X30298327Y-53840302D01*
X30119699Y-53661673D01*
X29886310Y-53565000D01*
X29045750Y-53565000D01*
X28887000Y-53723750D01*
X28633000Y-53723750D01*
X28474250Y-53565000D01*
X28110000Y-53565000D01*
X28110000Y-52335000D01*
X28474250Y-52335000D01*
X28633000Y-52176250D01*
X28633000Y-50827000D01*
X28613000Y-50827000D01*
X28613000Y-50573000D01*
X28633000Y-50573000D01*
X28633000Y-49223750D01*
X28887000Y-49223750D01*
X28887000Y-50573000D01*
X28907000Y-50573000D01*
X28907000Y-50827000D01*
X28887000Y-50827000D01*
X28887000Y-52176250D01*
X29045750Y-52335000D01*
X29886310Y-52335000D01*
X30119699Y-52238327D01*
X30298327Y-52059698D01*
X30312630Y-52025166D01*
X30372637Y-52085278D01*
X30973352Y-52334716D01*
X31623795Y-52335284D01*
X32224943Y-52086894D01*
X32685278Y-51627363D01*
X32785346Y-51386372D01*
X32785226Y-51523694D01*
X33033538Y-52124655D01*
X33458480Y-52550339D01*
X33035154Y-52972927D01*
X32785794Y-53573453D01*
X32785226Y-54223694D01*
X33033538Y-54824655D01*
X33458480Y-55250339D01*
X33035154Y-55672927D01*
X32785794Y-56273453D01*
X32785226Y-56923694D01*
X33033538Y-57524655D01*
X33458480Y-57950339D01*
X33035154Y-58372927D01*
X32785794Y-58973453D01*
X32785758Y-59014326D01*
X32686894Y-58775057D01*
X32227363Y-58314722D01*
X31626648Y-58065284D01*
X30976205Y-58064716D01*
X30375057Y-58313106D01*
X30312803Y-58375251D01*
X30298327Y-58340302D01*
X30119699Y-58161673D01*
X29886310Y-58065000D01*
X29045750Y-58065000D01*
X28887000Y-58223750D01*
X28887000Y-59573000D01*
X28907000Y-59573000D01*
X28907000Y-59827000D01*
X28887000Y-59827000D01*
X28887000Y-61176250D01*
X29045750Y-61335000D01*
X29886310Y-61335000D01*
X30119699Y-61238327D01*
X30298327Y-61059698D01*
X30312630Y-61025166D01*
X30372637Y-61085278D01*
X30973352Y-61334716D01*
X31623795Y-61335284D01*
X32224943Y-61086894D01*
X32685278Y-60627363D01*
X32934716Y-60026648D01*
X32934752Y-59985574D01*
X33033538Y-60224655D01*
X33458480Y-60650339D01*
X33035154Y-61072927D01*
X32785794Y-61673453D01*
X32785226Y-62323694D01*
X33033538Y-62924655D01*
X33492927Y-63384846D01*
X34093453Y-63634206D01*
X34743694Y-63634774D01*
X35344655Y-63386462D01*
X35804846Y-62927073D01*
X36054206Y-62326547D01*
X36054774Y-61676306D01*
X35806462Y-61075345D01*
X35381520Y-60649661D01*
X35804846Y-60227073D01*
X36054206Y-59626547D01*
X36054774Y-58976306D01*
X35806462Y-58375345D01*
X35381520Y-57949661D01*
X35804846Y-57527073D01*
X36054206Y-56926547D01*
X36054774Y-56276306D01*
X35806462Y-55675345D01*
X35381520Y-55249661D01*
X35804846Y-54827073D01*
X36054206Y-54226547D01*
X36054774Y-53576306D01*
X35806462Y-52975345D01*
X35381520Y-52549661D01*
X35804846Y-52127073D01*
X36054206Y-51526547D01*
X36054774Y-50876306D01*
X35806462Y-50275345D01*
X35381520Y-49849661D01*
X35804846Y-49427073D01*
X36054206Y-48826547D01*
X36054774Y-48176306D01*
X35806462Y-47575345D01*
X35347073Y-47115154D01*
X34746547Y-46865794D01*
X34096306Y-46865226D01*
X33495345Y-47113538D01*
X33035154Y-47572927D01*
X32785794Y-48173453D01*
X32785226Y-48823694D01*
X33033538Y-49424655D01*
X33458480Y-49850339D01*
X33035154Y-50272927D01*
X32935164Y-50513730D01*
X32935284Y-50376205D01*
X32686894Y-49775057D01*
X32227363Y-49314722D01*
X31626648Y-49065284D01*
X30976205Y-49064716D01*
X30375057Y-49313106D01*
X30312803Y-49375251D01*
X30298327Y-49340302D01*
X30119699Y-49161673D01*
X29886310Y-49065000D01*
X29045750Y-49065000D01*
X28887000Y-49223750D01*
X28633000Y-49223750D01*
X28474250Y-49065000D01*
X28110000Y-49065000D01*
X28110000Y-47835000D01*
X28474250Y-47835000D01*
X28633000Y-47676250D01*
X28633000Y-46327000D01*
X28613000Y-46327000D01*
X28613000Y-46073000D01*
X28633000Y-46073000D01*
X28633000Y-44723750D01*
X28887000Y-44723750D01*
X28887000Y-46073000D01*
X28907000Y-46073000D01*
X28907000Y-46327000D01*
X28887000Y-46327000D01*
X28887000Y-47676250D01*
X29045750Y-47835000D01*
X29886310Y-47835000D01*
X30119699Y-47738327D01*
X30298327Y-47559698D01*
X30312630Y-47525166D01*
X30372637Y-47585278D01*
X30973352Y-47834716D01*
X31623795Y-47835284D01*
X32224943Y-47586894D01*
X32685278Y-47127363D01*
X32934716Y-46526648D01*
X32935284Y-45876205D01*
X32686894Y-45275057D01*
X32227363Y-44814722D01*
X31626648Y-44565284D01*
X30976205Y-44564716D01*
X30375057Y-44813106D01*
X30312803Y-44875251D01*
X30298327Y-44840302D01*
X30119699Y-44661673D01*
X29886310Y-44565000D01*
X29045750Y-44565000D01*
X28887000Y-44723750D01*
X28633000Y-44723750D01*
X28474250Y-44565000D01*
X28110000Y-44565000D01*
X28110000Y-44322815D01*
X33364630Y-44322815D01*
X33688980Y-45107800D01*
X34289041Y-45708909D01*
X35073459Y-46034628D01*
X35922815Y-46035370D01*
X36707800Y-45711020D01*
X37308909Y-45110959D01*
X37634628Y-44326541D01*
X37635370Y-43477185D01*
X37311020Y-42692200D01*
X36710959Y-42091091D01*
X35926541Y-41765372D01*
X35077185Y-41764630D01*
X34292200Y-42088980D01*
X33691091Y-42689041D01*
X33365372Y-43473459D01*
X33364630Y-44322815D01*
X28110000Y-44322815D01*
X28110000Y-41885750D01*
X28349000Y-41885750D01*
X28349000Y-42589910D01*
X28445673Y-42823299D01*
X28624302Y-43001927D01*
X28857691Y-43098600D01*
X29714250Y-43098600D01*
X29873000Y-42939850D01*
X29873000Y-41727000D01*
X30127000Y-41727000D01*
X30127000Y-42939850D01*
X30285750Y-43098600D01*
X31142309Y-43098600D01*
X31375698Y-43001927D01*
X31554327Y-42823299D01*
X31651000Y-42589910D01*
X31651000Y-41885750D01*
X31492250Y-41727000D01*
X30127000Y-41727000D01*
X29873000Y-41727000D01*
X28507750Y-41727000D01*
X28349000Y-41885750D01*
X28110000Y-41885750D01*
X28110000Y-24610000D01*
X32398715Y-24610000D01*
X32035154Y-24972927D01*
X32035154Y-24972927D01*
G37*
X32035154Y-24972927D02*
X31785794Y-25573453D01*
X31785773Y-25598000D01*
X31443312Y-25598000D01*
X31244415Y-25300330D01*
X30758234Y-24975474D01*
X30184745Y-24861400D01*
X29815255Y-24861400D01*
X29241766Y-24975474D01*
X28755585Y-25300330D01*
X28430729Y-25786511D01*
X28316655Y-26360000D01*
X28430729Y-26933489D01*
X28755585Y-27419670D01*
X29070366Y-27630000D01*
X28755585Y-27840330D01*
X28430729Y-28326511D01*
X28316655Y-28900000D01*
X28430729Y-29473489D01*
X28755585Y-29959670D01*
X29070366Y-30170000D01*
X28755585Y-30380330D01*
X28430729Y-30866511D01*
X28316655Y-31440000D01*
X28430729Y-32013489D01*
X28755585Y-32499670D01*
X29070366Y-32710000D01*
X28755585Y-32920330D01*
X28430729Y-33406511D01*
X28316655Y-33980000D01*
X28430729Y-34553489D01*
X28755585Y-35039670D01*
X29070366Y-35250000D01*
X28755585Y-35460330D01*
X28430729Y-35946511D01*
X28316655Y-36520000D01*
X28430729Y-37093489D01*
X28755585Y-37579670D01*
X29070366Y-37790000D01*
X28755585Y-38000330D01*
X28430729Y-38486511D01*
X28316655Y-39060000D01*
X28430729Y-39633489D01*
X28755585Y-40119670D01*
X28777780Y-40134500D01*
X28624302Y-40198073D01*
X28445673Y-40376701D01*
X28349000Y-40610090D01*
X28349000Y-41314250D01*
X28507750Y-41473000D01*
X29873000Y-41473000D01*
X29873000Y-41453000D01*
X30127000Y-41453000D01*
X30127000Y-41473000D01*
X31492250Y-41473000D01*
X31651000Y-41314250D01*
X31651000Y-40610090D01*
X31554327Y-40376701D01*
X31375698Y-40198073D01*
X31222220Y-40134500D01*
X31244415Y-40119670D01*
X31443312Y-39822000D01*
X31825845Y-39822000D01*
X32033538Y-40324655D01*
X32492927Y-40784846D01*
X33093453Y-41034206D01*
X33743694Y-41034774D01*
X34344655Y-40786462D01*
X34804846Y-40327073D01*
X35054206Y-39726547D01*
X35054774Y-39076306D01*
X34806462Y-38475345D01*
X34381520Y-38049661D01*
X34804846Y-37627073D01*
X35054206Y-37026547D01*
X35054774Y-36376306D01*
X34806462Y-35775345D01*
X34381520Y-35349661D01*
X34804846Y-34927073D01*
X35054206Y-34326547D01*
X35054774Y-33676306D01*
X34806462Y-33075345D01*
X34381520Y-32649661D01*
X34804846Y-32227073D01*
X35054206Y-31626547D01*
X35054774Y-30976306D01*
X34806462Y-30375345D01*
X34381520Y-29949661D01*
X34804846Y-29527073D01*
X35054206Y-28926547D01*
X35054774Y-28276306D01*
X34806462Y-27675345D01*
X34381520Y-27249661D01*
X34804846Y-26827073D01*
X35054206Y-26226547D01*
X35054774Y-25576306D01*
X34806462Y-24975345D01*
X34441754Y-24610000D01*
X42558715Y-24610000D01*
X42195154Y-24972927D01*
X41945794Y-25573453D01*
X41945226Y-26223694D01*
X42193538Y-26824655D01*
X42618480Y-27250339D01*
X42195154Y-27672927D01*
X41945794Y-28273453D01*
X41945226Y-28923694D01*
X42193538Y-29524655D01*
X42618480Y-29950339D01*
X42195154Y-30372927D01*
X41945794Y-30973453D01*
X41945226Y-31623694D01*
X42193538Y-32224655D01*
X42618480Y-32650339D01*
X42195154Y-33072927D01*
X41945794Y-33673453D01*
X41945226Y-34323694D01*
X42193538Y-34924655D01*
X42618480Y-35350339D01*
X42195154Y-35772927D01*
X41945794Y-36373453D01*
X41945226Y-37023694D01*
X42193538Y-37624655D01*
X42618480Y-38050339D01*
X42195154Y-38472927D01*
X41945794Y-39073453D01*
X41945226Y-39723694D01*
X42193538Y-40324655D01*
X42652927Y-40784846D01*
X42818000Y-40853390D01*
X42818000Y-45504369D01*
X40961185Y-47361185D01*
X40796004Y-47608395D01*
X40738000Y-47900000D01*
X40738000Y-60634369D01*
X38499369Y-62873000D01*
X36900000Y-62873000D01*
X36850590Y-62883006D01*
X36808965Y-62911447D01*
X36781685Y-62953841D01*
X36773000Y-63000000D01*
X36773000Y-64599370D01*
X36147210Y-65225160D01*
X34647000Y-65225160D01*
X34411683Y-65269438D01*
X34195559Y-65408510D01*
X34050569Y-65620710D01*
X33999560Y-65872600D01*
X33999560Y-67447400D01*
X34043838Y-67682717D01*
X34182910Y-67898841D01*
X34395110Y-68043831D01*
X34588390Y-68082971D01*
X34338809Y-68284014D01*
X34071673Y-68773004D01*
X34054990Y-68852940D01*
X34177148Y-69073000D01*
X35663000Y-69073000D01*
X35663000Y-69053000D01*
X35917000Y-69053000D01*
X35917000Y-69073000D01*
X35937000Y-69073000D01*
X35937000Y-69327000D01*
X35917000Y-69327000D01*
X35917000Y-69347000D01*
X35663000Y-69347000D01*
X35663000Y-69327000D01*
X34177148Y-69327000D01*
X34054990Y-69547060D01*
X34071673Y-69626996D01*
X34338809Y-70115986D01*
X34772738Y-70465525D01*
X34788830Y-70470246D01*
X34393778Y-70734211D01*
X34085441Y-71195671D01*
X33977167Y-71740000D01*
X34085441Y-72284329D01*
X34393778Y-72745789D01*
X34855238Y-73054126D01*
X35399567Y-73162400D01*
X36180433Y-73162400D01*
X36724762Y-73054126D01*
X36773000Y-73021894D01*
X36773000Y-73190000D01*
X28110000Y-73190000D01*
X28110000Y-70335000D01*
X28474250Y-70335000D01*
X28633000Y-70176250D01*
X28633000Y-68827000D01*
X28613000Y-68827000D01*
X28613000Y-68573000D01*
X28633000Y-68573000D01*
X28633000Y-67223750D01*
X28887000Y-67223750D01*
X28887000Y-68573000D01*
X28907000Y-68573000D01*
X28907000Y-68827000D01*
X28887000Y-68827000D01*
X28887000Y-70176250D01*
X29045750Y-70335000D01*
X29886310Y-70335000D01*
X30119699Y-70238327D01*
X30298327Y-70059698D01*
X30312630Y-70025166D01*
X30372637Y-70085278D01*
X30973352Y-70334716D01*
X31623795Y-70335284D01*
X32224943Y-70086894D01*
X32685278Y-69627363D01*
X32934716Y-69026648D01*
X32935284Y-68376205D01*
X32686894Y-67775057D01*
X32227363Y-67314722D01*
X31626648Y-67065284D01*
X30976205Y-67064716D01*
X30375057Y-67313106D01*
X30312803Y-67375251D01*
X30298327Y-67340302D01*
X30119699Y-67161673D01*
X29886310Y-67065000D01*
X29045750Y-67065000D01*
X28887000Y-67223750D01*
X28633000Y-67223750D01*
X28474250Y-67065000D01*
X28110000Y-67065000D01*
X28110000Y-65835000D01*
X28474250Y-65835000D01*
X28633000Y-65676250D01*
X28633000Y-64327000D01*
X28613000Y-64327000D01*
X28613000Y-64073000D01*
X28633000Y-64073000D01*
X28633000Y-62723750D01*
X28887000Y-62723750D01*
X28887000Y-64073000D01*
X28907000Y-64073000D01*
X28907000Y-64327000D01*
X28887000Y-64327000D01*
X28887000Y-65676250D01*
X29045750Y-65835000D01*
X29886310Y-65835000D01*
X30119699Y-65738327D01*
X30298327Y-65559698D01*
X30312630Y-65525166D01*
X30372637Y-65585278D01*
X30973352Y-65834716D01*
X31623795Y-65835284D01*
X32224943Y-65586894D01*
X32685278Y-65127363D01*
X32934716Y-64526648D01*
X32935284Y-63876205D01*
X32686894Y-63275057D01*
X32227363Y-62814722D01*
X31626648Y-62565284D01*
X30976205Y-62564716D01*
X30375057Y-62813106D01*
X30312803Y-62875251D01*
X30298327Y-62840302D01*
X30119699Y-62661673D01*
X29886310Y-62565000D01*
X29045750Y-62565000D01*
X28887000Y-62723750D01*
X28633000Y-62723750D01*
X28474250Y-62565000D01*
X28110000Y-62565000D01*
X28110000Y-61335000D01*
X28474250Y-61335000D01*
X28633000Y-61176250D01*
X28633000Y-59827000D01*
X28613000Y-59827000D01*
X28613000Y-59573000D01*
X28633000Y-59573000D01*
X28633000Y-58223750D01*
X28474250Y-58065000D01*
X28110000Y-58065000D01*
X28110000Y-56835000D01*
X28474250Y-56835000D01*
X28633000Y-56676250D01*
X28633000Y-55327000D01*
X28613000Y-55327000D01*
X28613000Y-55073000D01*
X28633000Y-55073000D01*
X28633000Y-53723750D01*
X28887000Y-53723750D01*
X28887000Y-55073000D01*
X28907000Y-55073000D01*
X28907000Y-55327000D01*
X28887000Y-55327000D01*
X28887000Y-56676250D01*
X29045750Y-56835000D01*
X29886310Y-56835000D01*
X30119699Y-56738327D01*
X30298327Y-56559698D01*
X30312630Y-56525166D01*
X30372637Y-56585278D01*
X30973352Y-56834716D01*
X31623795Y-56835284D01*
X32224943Y-56586894D01*
X32685278Y-56127363D01*
X32934716Y-55526648D01*
X32935284Y-54876205D01*
X32686894Y-54275057D01*
X32227363Y-53814722D01*
X31626648Y-53565284D01*
X30976205Y-53564716D01*
X30375057Y-53813106D01*
X30312803Y-53875251D01*
X30298327Y-53840302D01*
X30119699Y-53661673D01*
X29886310Y-53565000D01*
X29045750Y-53565000D01*
X28887000Y-53723750D01*
X28633000Y-53723750D01*
X28474250Y-53565000D01*
X28110000Y-53565000D01*
X28110000Y-52335000D01*
X28474250Y-52335000D01*
X28633000Y-52176250D01*
X28633000Y-50827000D01*
X28613000Y-50827000D01*
X28613000Y-50573000D01*
X28633000Y-50573000D01*
X28633000Y-49223750D01*
X28887000Y-49223750D01*
X28887000Y-50573000D01*
X28907000Y-50573000D01*
X28907000Y-50827000D01*
X28887000Y-50827000D01*
X28887000Y-52176250D01*
X29045750Y-52335000D01*
X29886310Y-52335000D01*
X30119699Y-52238327D01*
X30298327Y-52059698D01*
X30312630Y-52025166D01*
X30372637Y-52085278D01*
X30973352Y-52334716D01*
X31623795Y-52335284D01*
X32224943Y-52086894D01*
X32685278Y-51627363D01*
X32785346Y-51386372D01*
X32785226Y-51523694D01*
X33033538Y-52124655D01*
X33458480Y-52550339D01*
X33035154Y-52972927D01*
X32785794Y-53573453D01*
X32785226Y-54223694D01*
X33033538Y-54824655D01*
X33458480Y-55250339D01*
X33035154Y-55672927D01*
X32785794Y-56273453D01*
X32785226Y-56923694D01*
X33033538Y-57524655D01*
X33458480Y-57950339D01*
X33035154Y-58372927D01*
X32785794Y-58973453D01*
X32785758Y-59014326D01*
X32686894Y-58775057D01*
X32227363Y-58314722D01*
X31626648Y-58065284D01*
X30976205Y-58064716D01*
X30375057Y-58313106D01*
X30312803Y-58375251D01*
X30298327Y-58340302D01*
X30119699Y-58161673D01*
X29886310Y-58065000D01*
X29045750Y-58065000D01*
X28887000Y-58223750D01*
X28887000Y-59573000D01*
X28907000Y-59573000D01*
X28907000Y-59827000D01*
X28887000Y-59827000D01*
X28887000Y-61176250D01*
X29045750Y-61335000D01*
X29886310Y-61335000D01*
X30119699Y-61238327D01*
X30298327Y-61059698D01*
X30312630Y-61025166D01*
X30372637Y-61085278D01*
X30973352Y-61334716D01*
X31623795Y-61335284D01*
X32224943Y-61086894D01*
X32685278Y-60627363D01*
X32934716Y-60026648D01*
X32934752Y-59985574D01*
X33033538Y-60224655D01*
X33458480Y-60650339D01*
X33035154Y-61072927D01*
X32785794Y-61673453D01*
X32785226Y-62323694D01*
X33033538Y-62924655D01*
X33492927Y-63384846D01*
X34093453Y-63634206D01*
X34743694Y-63634774D01*
X35344655Y-63386462D01*
X35804846Y-62927073D01*
X36054206Y-62326547D01*
X36054774Y-61676306D01*
X35806462Y-61075345D01*
X35381520Y-60649661D01*
X35804846Y-60227073D01*
X36054206Y-59626547D01*
X36054774Y-58976306D01*
X35806462Y-58375345D01*
X35381520Y-57949661D01*
X35804846Y-57527073D01*
X36054206Y-56926547D01*
X36054774Y-56276306D01*
X35806462Y-55675345D01*
X35381520Y-55249661D01*
X35804846Y-54827073D01*
X36054206Y-54226547D01*
X36054774Y-53576306D01*
X35806462Y-52975345D01*
X35381520Y-52549661D01*
X35804846Y-52127073D01*
X36054206Y-51526547D01*
X36054774Y-50876306D01*
X35806462Y-50275345D01*
X35381520Y-49849661D01*
X35804846Y-49427073D01*
X36054206Y-48826547D01*
X36054774Y-48176306D01*
X35806462Y-47575345D01*
X35347073Y-47115154D01*
X34746547Y-46865794D01*
X34096306Y-46865226D01*
X33495345Y-47113538D01*
X33035154Y-47572927D01*
X32785794Y-48173453D01*
X32785226Y-48823694D01*
X33033538Y-49424655D01*
X33458480Y-49850339D01*
X33035154Y-50272927D01*
X32935164Y-50513730D01*
X32935284Y-50376205D01*
X32686894Y-49775057D01*
X32227363Y-49314722D01*
X31626648Y-49065284D01*
X30976205Y-49064716D01*
X30375057Y-49313106D01*
X30312803Y-49375251D01*
X30298327Y-49340302D01*
X30119699Y-49161673D01*
X29886310Y-49065000D01*
X29045750Y-49065000D01*
X28887000Y-49223750D01*
X28633000Y-49223750D01*
X28474250Y-49065000D01*
X28110000Y-49065000D01*
X28110000Y-47835000D01*
X28474250Y-47835000D01*
X28633000Y-47676250D01*
X28633000Y-46327000D01*
X28613000Y-46327000D01*
X28613000Y-46073000D01*
X28633000Y-46073000D01*
X28633000Y-44723750D01*
X28887000Y-44723750D01*
X28887000Y-46073000D01*
X28907000Y-46073000D01*
X28907000Y-46327000D01*
X28887000Y-46327000D01*
X28887000Y-47676250D01*
X29045750Y-47835000D01*
X29886310Y-47835000D01*
X30119699Y-47738327D01*
X30298327Y-47559698D01*
X30312630Y-47525166D01*
X30372637Y-47585278D01*
X30973352Y-47834716D01*
X31623795Y-47835284D01*
X32224943Y-47586894D01*
X32685278Y-47127363D01*
X32934716Y-46526648D01*
X32935284Y-45876205D01*
X32686894Y-45275057D01*
X32227363Y-44814722D01*
X31626648Y-44565284D01*
X30976205Y-44564716D01*
X30375057Y-44813106D01*
X30312803Y-44875251D01*
X30298327Y-44840302D01*
X30119699Y-44661673D01*
X29886310Y-44565000D01*
X29045750Y-44565000D01*
X28887000Y-44723750D01*
X28633000Y-44723750D01*
X28474250Y-44565000D01*
X28110000Y-44565000D01*
X28110000Y-44322815D01*
X33364630Y-44322815D01*
X33688980Y-45107800D01*
X34289041Y-45708909D01*
X35073459Y-46034628D01*
X35922815Y-46035370D01*
X36707800Y-45711020D01*
X37308909Y-45110959D01*
X37634628Y-44326541D01*
X37635370Y-43477185D01*
X37311020Y-42692200D01*
X36710959Y-42091091D01*
X35926541Y-41765372D01*
X35077185Y-41764630D01*
X34292200Y-42088980D01*
X33691091Y-42689041D01*
X33365372Y-43473459D01*
X33364630Y-44322815D01*
X28110000Y-44322815D01*
X28110000Y-41885750D01*
X28349000Y-41885750D01*
X28349000Y-42589910D01*
X28445673Y-42823299D01*
X28624302Y-43001927D01*
X28857691Y-43098600D01*
X29714250Y-43098600D01*
X29873000Y-42939850D01*
X29873000Y-41727000D01*
X30127000Y-41727000D01*
X30127000Y-42939850D01*
X30285750Y-43098600D01*
X31142309Y-43098600D01*
X31375698Y-43001927D01*
X31554327Y-42823299D01*
X31651000Y-42589910D01*
X31651000Y-41885750D01*
X31492250Y-41727000D01*
X30127000Y-41727000D01*
X29873000Y-41727000D01*
X28507750Y-41727000D01*
X28349000Y-41885750D01*
X28110000Y-41885750D01*
X28110000Y-24610000D01*
X32398715Y-24610000D01*
X32035154Y-24972927D01*
G36*
X48617000Y-64673000D02*
X48637000Y-64673000D01*
X48637000Y-64927000D01*
X48617000Y-64927000D01*
X48617000Y-64947000D01*
X48363000Y-64947000D01*
X48363000Y-64927000D01*
X48343000Y-64927000D01*
X48343000Y-64673000D01*
X48363000Y-64673000D01*
X48363000Y-64653000D01*
X48617000Y-64653000D01*
X48617000Y-64673000D01*
X48617000Y-64673000D01*
G37*
X48617000Y-64673000D02*
X48637000Y-64673000D01*
X48637000Y-64927000D01*
X48617000Y-64927000D01*
X48617000Y-64947000D01*
X48363000Y-64947000D01*
X48363000Y-64927000D01*
X48343000Y-64927000D01*
X48343000Y-64673000D01*
X48363000Y-64673000D01*
X48363000Y-64653000D01*
X48617000Y-64653000D01*
X48617000Y-64673000D01*
G36*
X48617000Y-55573000D02*
X48637000Y-55573000D01*
X48637000Y-55827000D01*
X48617000Y-55827000D01*
X48617000Y-55847000D01*
X48363000Y-55847000D01*
X48363000Y-55827000D01*
X48343000Y-55827000D01*
X48343000Y-55573000D01*
X48363000Y-55573000D01*
X48363000Y-55553000D01*
X48617000Y-55553000D01*
X48617000Y-55573000D01*
X48617000Y-55573000D01*
G37*
X48617000Y-55573000D02*
X48637000Y-55573000D01*
X48637000Y-55827000D01*
X48617000Y-55827000D01*
X48617000Y-55847000D01*
X48363000Y-55847000D01*
X48363000Y-55827000D01*
X48343000Y-55827000D01*
X48343000Y-55573000D01*
X48363000Y-55573000D01*
X48363000Y-55553000D01*
X48617000Y-55553000D01*
X48617000Y-55573000D01*
G36*
X48617000Y-46573000D02*
X48637000Y-46573000D01*
X48637000Y-46827000D01*
X48617000Y-46827000D01*
X48617000Y-46847000D01*
X48363000Y-46847000D01*
X48363000Y-46827000D01*
X48343000Y-46827000D01*
X48343000Y-46573000D01*
X48363000Y-46573000D01*
X48363000Y-46553000D01*
X48617000Y-46553000D01*
X48617000Y-46573000D01*
X48617000Y-46573000D01*
G37*
X48617000Y-46573000D02*
X48637000Y-46573000D01*
X48637000Y-46827000D01*
X48617000Y-46827000D01*
X48617000Y-46847000D01*
X48363000Y-46847000D01*
X48363000Y-46827000D01*
X48343000Y-46827000D01*
X48343000Y-46573000D01*
X48363000Y-46573000D01*
X48363000Y-46553000D01*
X48617000Y-46553000D01*
X48617000Y-46573000D01*
G36*
X48617000Y-37473000D02*
X48637000Y-37473000D01*
X48637000Y-37727000D01*
X48617000Y-37727000D01*
X48617000Y-37747000D01*
X48363000Y-37747000D01*
X48363000Y-37727000D01*
X48343000Y-37727000D01*
X48343000Y-37473000D01*
X48363000Y-37473000D01*
X48363000Y-37453000D01*
X48617000Y-37453000D01*
X48617000Y-37473000D01*
X48617000Y-37473000D01*
G37*
X48617000Y-37473000D02*
X48637000Y-37473000D01*
X48637000Y-37727000D01*
X48617000Y-37727000D01*
X48617000Y-37747000D01*
X48363000Y-37747000D01*
X48363000Y-37727000D01*
X48343000Y-37727000D01*
X48343000Y-37473000D01*
X48363000Y-37473000D01*
X48363000Y-37453000D01*
X48617000Y-37453000D01*
X48617000Y-37473000D01*
G36*
X46699560Y-26747400D02*
X46743838Y-26982717D01*
X46882910Y-27198841D01*
X47095110Y-27343831D01*
X47288390Y-27382971D01*
X47038809Y-27584014D01*
X46771673Y-28073004D01*
X46754990Y-28152940D01*
X46877148Y-28373000D01*
X48363000Y-28373000D01*
X48363000Y-28353000D01*
X48617000Y-28353000D01*
X48617000Y-28373000D01*
X48637000Y-28373000D01*
X48637000Y-28627000D01*
X48617000Y-28627000D01*
X48617000Y-28647000D01*
X48363000Y-28647000D01*
X48363000Y-28627000D01*
X46877148Y-28627000D01*
X46754990Y-28847060D01*
X46771673Y-28926996D01*
X47038809Y-29415986D01*
X47472738Y-29765525D01*
X47488830Y-29770246D01*
X47093778Y-30034211D01*
X46962000Y-30231431D01*
X46962000Y-29800000D01*
X46903996Y-29508395D01*
X46738815Y-29261184D01*
X45538815Y-28061185D01*
X45291605Y-27896004D01*
X45036685Y-27845297D01*
X44966462Y-27675345D01*
X44541520Y-27249661D01*
X44964846Y-26827073D01*
X45033390Y-26662000D01*
X46699560Y-26662000D01*
X46699560Y-26747400D01*
X46699560Y-26747400D01*
G37*
X46699560Y-26747400D02*
X46743838Y-26982717D01*
X46882910Y-27198841D01*
X47095110Y-27343831D01*
X47288390Y-27382971D01*
X47038809Y-27584014D01*
X46771673Y-28073004D01*
X46754990Y-28152940D01*
X46877148Y-28373000D01*
X48363000Y-28373000D01*
X48363000Y-28353000D01*
X48617000Y-28353000D01*
X48617000Y-28373000D01*
X48637000Y-28373000D01*
X48637000Y-28627000D01*
X48617000Y-28627000D01*
X48617000Y-28647000D01*
X48363000Y-28647000D01*
X48363000Y-28627000D01*
X46877148Y-28627000D01*
X46754990Y-28847060D01*
X46771673Y-28926996D01*
X47038809Y-29415986D01*
X47472738Y-29765525D01*
X47488830Y-29770246D01*
X47093778Y-30034211D01*
X46962000Y-30231431D01*
X46962000Y-29800000D01*
X46903996Y-29508395D01*
X46738815Y-29261184D01*
X45538815Y-28061185D01*
X45291605Y-27896004D01*
X45036685Y-27845297D01*
X44966462Y-27675345D01*
X44541520Y-27249661D01*
X44964846Y-26827073D01*
X45033390Y-26662000D01*
X46699560Y-26662000D01*
X46699560Y-26747400D01*
M02*
